<svg width="24" height="24" viewBox="0 0 24 24" fill="none" xmlns="http://www.w3.org/2000/svg">
<path d="M21.8611 8.50354L19.7251 10.6395C20.1421 11.16 20.4841 11.6355 20.7286 12C19.5886 13.695 16.4536 17.73 12.3871 17.9775L9.66455 20.7C10.4086 20.886 11.1856 21 12.0001 21C19.0606 21 23.6161 13.074 23.8066 12.738C24.0631 12.282 24.0646 11.724 23.8081 11.268C23.7376 11.1405 23.0581 9.94654 21.8611 8.50354Z" fill="red"/>
<path d="M0.439696 23.5606C0.732196 23.8531 1.1162 24.0001 1.5002 24.0001C1.8842 24.0001 2.2682 23.8531 2.5607 23.5606L23.5607 2.56063C24.1472 1.97413 24.1472 1.02613 23.5607 0.439631C22.9742 -0.146869 22.0262 -0.146869 21.4397 0.439631L17.3222 4.55713C15.7727 3.64663 13.9967 3.00013 12.0002 3.00013C4.8677 3.00013 0.376696 10.9336 0.189196 11.2711C-0.0643035 11.7256 -0.0628035 12.2791 0.192196 12.7336C0.297196 12.9211 1.7582 15.4366 4.2317 17.6476L0.438196 21.4411C-0.146804 22.0261 -0.146804 22.9741 0.439696 23.5606ZM3.2717 11.9986C4.4372 10.2526 7.7192 6.00013 12.0002 6.00013C13.1132 6.00013 14.1557 6.30163 15.1172 6.76213L12.7682 9.11113C12.5222 9.04363 12.2672 9.00013 12.0002 9.00013C10.3427 9.00013 9.0002 10.3426 9.0002 12.0001C9.0002 12.2671 9.0437 12.5221 9.1112 12.7681L6.3602 15.5191C4.9277 14.2651 3.8387 12.8431 3.2717 11.9986Z" fill="red"/>
</svg>
