<svg width="109" height="103" viewBox="0 0 109 103" fill="none" xmlns="http://www.w3.org/2000/svg">
<path d="M106.663 46.0073C104.826 41.1319 101.198 37.2307 96.2823 34.3915C87.7879 29.4932 80.3857 22.9108 74.5306 15.0488C68.7039 7.21821 60.9206 2.43518 52.371 2.43518C39.4158 2.43518 28.221 13.4146 22.9262 29.337C19.2789 40.2711 14.0489 50.6125 7.4025 60.032C1.42924 68.5124 -0.739167 77.4883 2.20802 85.3087C8.66928 102.458 37.2902 107.56 66.1354 96.7083C94.9806 85.8561 113.125 63.1561 106.663 46.0073V46.0073Z" fill="#BCE6F3"/>
<path d="M96.3001 66.2508C92.8987 65.3499 92.7702 75.7899 92.7702 75.7899C92.7702 75.7899 92.2067 59.2052 86.3191 57.2558C80.4315 55.3063 82.5232 74.1963 82.5232 74.1963C82.5232 74.1963 64.7477 98.4786 60.4222 94.0762C56.0967 89.6738 53.7964 98.6284 53.7964 98.6284L50.528 94.9119C47.254 91.1897 47.8513 98.9336 47.8513 98.9336C47.8513 98.9336 46.4493 96.0854 43.8087 96.9852C41.5388 97.7578 42.1519 101.214 42.3683 102.166C49.9498 101.549 58.034 99.7591 66.1396 96.7104C80.374 91.3553 92.0016 83.1148 99.3543 74.0735C98.7764 74.094 98.2093 74.2356 97.6897 74.4891C97.6897 74.4891 99.7026 67.1518 96.3001 66.2508V66.2508Z" fill="#CCF2EA"/>
<path fill-rule="evenodd" clip-rule="evenodd" d="M48.4932 98.609C48.4934 98.6093 48.4935 98.6096 47.8468 98.928L48.4935 98.6096C48.6693 98.9668 48.5223 99.3988 48.1652 99.5746C47.8087 99.7501 47.3777 99.604 47.2012 99.2484C47.2009 99.2479 47.2007 99.2474 47.2004 99.2469C47.2004 99.2469 47.2004 99.2468 47.2004 99.2468C47.2004 99.2468 47.2004 99.2468 47.2004 99.2468L47.2004 99.2469L47.2006 99.2472C47.1994 99.2449 47.197 99.2402 47.1932 99.2331C47.1858 99.219 47.1732 99.1957 47.1556 99.1649C47.1203 99.1031 47.0653 99.0119 46.9912 98.9034C46.8414 98.6839 46.6219 98.4062 46.3393 98.1572C45.7855 97.6694 45.0382 97.3206 44.0367 97.6619C43.6599 97.7903 43.2503 97.5889 43.1219 97.2121C42.9935 96.8353 43.1949 96.4258 43.5717 96.2974C45.2108 95.7388 46.4848 96.3642 47.2922 97.0755C47.6901 97.4261 47.9862 97.8041 48.1818 98.0906C48.2804 98.235 48.3556 98.3593 48.4073 98.4498C48.4331 98.4951 48.4533 98.5321 48.4676 98.5593C48.4748 98.5729 48.4806 98.584 48.4849 98.5924L48.4903 98.6031L48.4921 98.6069L48.4929 98.6084L48.4932 98.609ZM47.2006 99.2472C47.2009 99.2478 47.2011 99.2482 47.2012 99.2484C47.2013 99.2486 47.2013 99.2487 47.2013 99.2487L47.2013 99.2487L47.201 99.248L47.2006 99.2473L47.2006 99.2472Z" fill="#152272"/>
<path fill-rule="evenodd" clip-rule="evenodd" d="M50.0516 94.3706C50.3505 94.1077 50.806 94.137 51.0689 94.4359L54.3373 98.1524C54.6001 98.4513 54.5709 98.9068 54.272 99.1696C53.9731 99.4325 53.5176 99.4033 53.2547 99.1044L49.9864 95.3879C49.7235 95.0889 49.7527 94.6335 50.0516 94.3706Z" fill="#152272"/>
<path fill-rule="evenodd" clip-rule="evenodd" d="M84.0731 56.8172C84.7869 56.3517 85.6309 56.2652 86.5457 56.5682C86.9236 56.6933 87.1285 57.1011 87.0033 57.479C86.8782 57.8569 86.4704 58.0618 86.0925 57.9366C85.5365 57.7525 85.1588 57.8302 84.8607 58.0246C84.5256 58.2432 84.1974 58.6721 83.9081 59.3576C83.3288 60.7305 83.0411 62.8009 82.935 65.0264C82.8299 67.23 82.9056 69.502 83.0085 71.2291C83.0599 72.0912 83.1179 72.8143 83.163 73.3213C83.1855 73.5747 83.2048 73.7739 83.2184 73.9092C83.2252 73.9769 83.2306 74.0286 83.2342 74.0631L83.2384 74.1018L83.2396 74.1133L83.2397 74.1137C83.2595 74.293 83.2114 74.4731 83.1049 74.6186L82.5233 74.1929C83.1049 74.6186 83.1048 74.6188 83.1046 74.619L83.0913 74.6372L83.0524 74.6901C83.0181 74.7365 82.9675 74.8051 82.9013 74.8942C82.769 75.0724 82.5749 75.3326 82.3264 75.6619C81.8296 76.3205 81.1154 77.2557 80.2451 78.364C78.5054 80.5791 76.1372 83.4912 73.6298 86.2685C71.13 89.0374 68.462 91.706 66.1248 93.4092C64.962 94.2566 63.8282 94.9048 62.8014 95.1817C61.7582 95.4631 60.6979 95.3853 59.9081 94.5814C59.6291 94.2974 59.6331 93.8411 59.917 93.5621C60.201 93.2831 60.6573 93.2871 60.9363 93.571C61.2278 93.8677 61.6693 93.994 62.4261 93.7899C63.1994 93.5813 64.1639 93.0545 65.2758 92.2442C67.4881 90.632 70.0751 88.0546 72.5598 85.3024C75.037 82.5586 77.383 79.6744 79.1114 77.4736C79.9751 76.3738 80.6835 75.4461 81.1756 74.7937C81.4217 74.4676 81.6136 74.2104 81.7438 74.035C81.7556 74.0191 81.7669 74.0038 81.7777 73.9893C81.7643 73.8534 81.7469 73.6712 81.7271 73.4489C81.681 72.9305 81.6219 72.1932 81.5695 71.3149C81.465 69.5612 81.3866 67.2328 81.4951 64.9577C81.6025 62.7045 81.8961 60.418 82.58 58.7972C82.9223 57.9859 83.3963 57.2587 84.0731 56.8172Z" fill="#152272"/>
<path fill-rule="evenodd" clip-rule="evenodd" d="M94.799 65.7855C95.2955 65.4849 95.8709 65.3914 96.4851 65.5541C96.8699 65.656 97.0993 66.0506 96.9973 66.4354C96.8954 66.8202 96.5008 67.0495 96.116 66.9476C95.8799 66.8851 95.7072 66.9208 95.5457 67.0186C95.3596 67.1313 95.1508 67.3524 94.9388 67.7208C94.5118 68.4626 94.1941 69.5834 93.9691 70.8123C93.7472 72.0242 93.6273 73.2714 93.5631 74.2213C93.5311 74.6949 93.5131 75.0915 93.5032 75.3689C93.4982 75.5075 93.4953 75.6162 93.4936 75.6896C93.4927 75.7263 93.4922 75.7542 93.4918 75.7727L93.4915 75.7931L93.4914 75.7988C93.4914 75.7988 93.4914 75.7987 93.4914 75.7988M94.799 65.7855C94.327 66.0713 93.9677 66.518 93.6894 67.0017ZM93.6894 67.0017C93.1356 67.9639 92.7834 69.2842 92.5511 70.5527ZM92.5511 70.5527C92.3157 71.8383 92.191 73.1447 92.1248 74.1241ZM92.1248 74.1241C92.0916 74.6152 92.0729 75.0272 92.0626 75.3173ZM92.0626 75.3173C92.0574 75.4624 92.0542 75.5771 92.0524 75.6561ZM92.0524 75.6561C92.0515 75.6957 92.0509 75.7263 92.0505 75.7473ZM92.0505 75.7473L92.0501 75.7716ZM92.0501 75.7716L92.05 75.7782ZM92.05 75.7782L92.05 75.7801ZM92.05 75.7801L92.05 75.7807ZM92.05 75.7807C92.05 75.7809 92.05 75.781 92.7707 75.7899Z" fill="#152272"/>
<path fill-rule="evenodd" clip-rule="evenodd" d="M100.07 74.0514C100.084 74.4492 99.7732 74.7832 99.3753 74.7972C98.8983 74.8141 98.4302 74.931 98.0013 75.1403C97.6435 75.3148 97.212 75.1663 97.0374 74.8086C96.8629 74.4508 97.0114 74.0193 97.3691 73.8447C97.9795 73.5469 98.6456 73.3806 99.3243 73.3566C99.7221 73.3425 100.056 73.6536 100.07 74.0514Z" fill="#152272"/>
<path d="M40.3532 70.9867C40.3532 70.9867 34.8544 63.5593 33.1796 63.6606C31.5049 63.762 34.5591 67.0291 34.5591 67.0291C34.5591 67.0291 30.0375 72.5904 36.7151 75.7922" fill="#152272"/>
<path d="M59.0495 54.5382C59.0495 54.5382 54.5865 54.8952 55.9366 69.848C57.2868 84.8007 52.6457 82.4886 39.9328 70.4584C39.9328 70.4584 35.9285 72.0295 35.3661 75.2898C35.3661 75.2898 48.0677 92.5592 56.7797 92.4466C65.4916 92.334 65.6764 74.9069 65.6764 74.9069" fill="white"/>
<path d="M47.3349 75.2921C47.3349 75.2921 39.3442 70.6431 37.843 71.3943C36.3418 72.1455 40.4442 73.9429 40.4442 73.9429C40.4442 73.9429 38.4933 80.8387 45.8945 81.1383" fill="#152272"/>
<path d="M56.7822 99.6589C59.9182 98.8362 63.0093 97.8513 66.043 96.7082C71.9596 94.497 77.6283 91.6728 82.9564 88.2819L61.8944 89.2955C61.8944 89.2955 58.83 93.7203 56.7822 99.6589V99.6589Z" fill="#152272"/>
<path d="M56.0755 47.2651L55.663 44.881C55.6339 44.7129 55.5632 44.5547 55.4573 44.4209C55.3514 44.2872 55.2136 44.182 55.0566 44.1151C54.8218 44.0144 54.6331 43.8297 54.5274 43.5973C54.4217 43.3648 54.4067 43.1013 54.4852 42.8583L56.5139 36.6213C58.1278 39.099 61.9169 35.4377 63.4879 36.0582C65.1785 36.7283 65.1458 41.2737 66.4238 39.9842C67.3446 39.0551 68.5652 39.153 69.167 40.1182C69.8838 41.2703 69.0803 42.5519 68.4457 43.2952C68.2847 43.4814 68.1961 43.7193 68.1961 43.9653C68.1961 44.2114 68.2847 44.4493 68.4457 44.6354L71.0526 47.6165C72.1392 48.8605 73.073 50.23 73.8341 51.6957C74.8213 53.5967 74.1192 56.0395 72.2698 57.124L70.2929 58.284C69.4798 58.7613 68.527 58.9443 67.5948 58.8022C66.6625 58.66 65.8077 58.2015 65.174 57.5035C64.2069 56.4405 63.4858 55.1778 63.0619 53.8051L61.7996 49.7079C61.726 49.4698 61.5682 49.2667 61.3555 49.1365C61.1429 49.0064 60.8901 48.958 60.6444 49.0006L58.9629 49.2935C58.3109 49.4069 57.6404 49.257 57.099 48.8767C56.5575 48.4963 56.1894 47.9167 56.0755 47.2651V47.2651Z" fill="#152272"/>
<path d="M72.1946 38.4774C71.9828 35.9367 67.5738 30.1356 60.9243 31.1097C54.2749 32.0839 51.3919 34.7677 55.4166 39.9888L56.1333 37.7769C56.1333 37.7769 59.2327 40.214 64.3607 40.0868L65.2871 41.6995C65.2871 41.6995 66.0072 39.6059 67.4904 39.7399C68.9736 39.8739 68.8429 42.5881 67.4904 42.8854C67.4904 42.8854 67.4081 43.4553 68.445 44.6423L69.4819 45.8282C69.4819 45.8282 72.4065 41.0238 72.1946 38.4774V38.4774Z" fill="#409DE2"/>
<path d="M74.281 49.2755L72.2051 46.317L66.4741 48.7732L67.5752 54.1092L65.7111 56.9034L63.1956 54.214L61.7992 49.717L58.657 50.5459L59.6094 54.1937C59.6094 54.1937 54.4701 56.0441 59.2713 69.0034C62.9488 78.9332 61.7147 85.579 60.7116 88.5612C60.6334 88.7939 60.6063 89.0407 60.632 89.2848C60.6578 89.5289 60.7358 89.7647 60.8608 89.976C60.9857 90.1873 61.1548 90.3693 61.3564 90.5095C61.558 90.6498 61.7874 90.7451 62.0291 90.7889C67.6383 91.8182 83.055 93.6967 89.1037 84.767C89.1026 84.7614 90.8585 50.1224 74.281 49.2755V49.2755Z" fill="white"/>
<path fill-rule="evenodd" clip-rule="evenodd" d="M59.0205 68.3219C59.3938 68.1836 59.8084 68.3741 59.9467 68.7474C63.6839 78.8386 62.4475 85.6541 61.3943 88.7854C61.2674 89.1627 60.8586 89.3657 60.4813 89.2388C60.104 89.1118 59.901 88.7031 60.0279 88.3258C60.9809 85.4927 62.2126 79.0166 58.5949 69.2481C58.4566 68.8748 58.6472 68.4601 59.0205 68.3219Z" fill="#152272"/>
<path d="M86.7082 62.2945C86.7082 62.2945 100.452 104.775 44.6824 81.1631C44.6824 81.1631 43.4427 75.9915 46.5983 74.6423C46.5983 74.6423 79.5775 82.3231 74.285 68.1576C68.9924 53.9921 83.0521 52.3838 86.7082 62.2945V62.2945Z" fill="white"/>
<path fill-rule="evenodd" clip-rule="evenodd" d="M86.9704 79.7752C87.3338 79.9377 87.4968 80.3639 87.3343 80.7274C85.4923 84.8485 81.7831 88.1553 74.9804 88.8799C68.2427 89.5975 58.4754 87.7861 44.401 81.8268C44.0344 81.6716 43.8631 81.2486 44.0183 80.882C44.1735 80.5154 44.5965 80.3441 44.9631 80.4993C58.9551 86.4238 68.4515 88.1256 74.8277 87.4464C81.1388 86.7742 84.3935 83.7742 86.0182 80.1391C86.1807 79.7757 86.607 79.6128 86.9704 79.7752Z" fill="#152272"/>
<path d="M53.562 11.8142V0.58588H50.6644V11.8142C50.6645 13.4651 50.2691 15.092 49.5113 16.5589C48.7535 18.0258 47.6552 19.2902 46.3084 20.2462C45.4109 20.8834 44.6236 21.6629 43.9777 22.5538C43.8796 22.6884 43.8208 22.8475 43.8077 23.0134C43.7946 23.1794 43.8277 23.3457 43.9035 23.494C43.9793 23.6423 44.0946 23.7666 44.2369 23.8534C44.3791 23.9401 44.5425 23.9857 44.7091 23.9852H59.5172C59.6838 23.9857 59.8473 23.9401 59.9895 23.8534C60.1317 23.7666 60.2471 23.6423 60.3228 23.494C60.3986 23.3457 60.4318 23.1794 60.4187 23.0134C60.4056 22.8475 60.3467 22.6884 60.2486 22.5538C59.6028 21.6634 58.8155 20.8847 57.9179 20.2484C56.5708 19.2922 55.4724 18.0275 54.7145 16.5602C53.9567 15.0928 53.5615 13.4655 53.562 11.8142V11.8142Z" fill="white"/>
<path d="M52.1142 25.9403C52.7271 25.9404 53.3278 25.7692 53.8485 25.4463C54.3693 25.1233 54.7894 24.6613 55.0614 24.1125H49.167C49.4388 24.6615 49.8588 25.1236 50.3796 25.4466C50.9004 25.7696 51.5012 25.9406 52.1142 25.9403V25.9403Z" fill="#CCF2EA"/>
<path fill-rule="evenodd" clip-rule="evenodd" d="M80.3184 44.4856C80.3184 44.0876 80.6411 43.7649 81.0392 43.7649H98.7099C99.108 43.7649 99.4307 44.0876 99.4307 44.4856C99.4307 44.8837 99.108 45.2064 98.7099 45.2064H81.0392C80.6411 45.2064 80.3184 44.8837 80.3184 44.4856Z" fill="#152272"/>
<path fill-rule="evenodd" clip-rule="evenodd" d="M81.8027 29.9C81.8027 29.502 82.1254 29.1793 82.5235 29.1793H94.4081C94.8061 29.1793 95.1288 29.502 95.1288 29.9C95.1288 30.2981 94.8061 30.6208 94.4081 30.6208H82.5235C82.1254 30.6208 81.8027 30.2981 81.8027 29.9Z" fill="#152272"/>
<path fill-rule="evenodd" clip-rule="evenodd" d="M79.046 30.7301C79.046 30.332 79.3687 30.0093 79.7668 30.0093H82.9608C83.3589 30.0093 83.6816 30.332 83.6816 30.7301C83.6816 31.1282 83.3589 31.4509 82.9608 31.4509H79.7668C79.3687 31.4509 79.046 31.1282 79.046 30.7301Z" fill="white"/>
<path fill-rule="evenodd" clip-rule="evenodd" d="M82.9579 30.7301C82.9579 30.332 83.2807 30.0093 83.6787 30.0093H83.8556C84.2537 30.0093 84.5764 30.332 84.5764 30.7301C84.5764 31.1282 84.2537 31.4509 83.8556 31.4509H83.6787C83.2807 31.4509 82.9579 31.1282 82.9579 30.7301Z" fill="white"/>
<path fill-rule="evenodd" clip-rule="evenodd" d="M84.1582 42.0598C84.1582 41.6618 84.4809 41.339 84.879 41.339H88.0719C88.4699 41.339 88.7926 41.6618 88.7926 42.0598C88.7926 42.4579 88.4699 42.7806 88.0719 42.7806H84.879C84.4809 42.7806 84.1582 42.4579 84.1582 42.0598Z" fill="white"/>
<path fill-rule="evenodd" clip-rule="evenodd" d="M83.2618 42.0598C83.2618 41.6618 83.5845 41.3391 83.9826 41.3391H84.1596C84.5577 41.3391 84.8804 41.6618 84.8804 42.0598C84.8804 42.4579 84.5577 42.7806 84.1596 42.7806H83.9826C83.5845 42.7806 83.2618 42.4579 83.2618 42.0598Z" fill="white"/>
<path fill-rule="evenodd" clip-rule="evenodd" d="M91.218 34.7518C91.218 34.3537 91.5407 34.031 91.9388 34.031H95.1327C95.5308 34.031 95.8535 34.3537 95.8535 34.7518C95.8535 35.1499 95.5308 35.4726 95.1327 35.4726H91.9388C91.5407 35.4726 91.218 35.1499 91.218 34.7518Z" fill="white"/>
<path fill-rule="evenodd" clip-rule="evenodd" d="M90.3234 34.7518C90.3234 34.3538 90.6461 34.0311 91.0441 34.0311H91.2211C91.6192 34.0311 91.9419 34.3538 91.9419 34.7518C91.9419 35.1499 91.6192 35.4726 91.2211 35.4726H91.0441C90.6461 35.4726 90.3234 35.1499 90.3234 34.7518Z" fill="white"/>
<path fill-rule="evenodd" clip-rule="evenodd" d="M76.4287 33.5467C76.4287 33.1486 76.7514 32.8259 77.1495 32.8259H96.5952C96.9933 32.8259 97.316 33.1486 97.316 33.5467C97.316 33.9448 96.9933 34.2675 96.5952 34.2675H77.1495C76.7514 34.2675 76.4287 33.9448 76.4287 33.5467Z" fill="#152272"/>
<path fill-rule="evenodd" clip-rule="evenodd" d="M82.6777 37.1934C82.6777 36.7953 83.0004 36.4726 83.3985 36.4726H98.2821C98.6801 36.4726 99.0028 36.7953 99.0028 37.1934C99.0028 37.5914 98.6801 37.9142 98.2821 37.9142H83.3985C83.0004 37.9142 82.6777 37.5914 82.6777 37.1934Z" fill="#152272"/>
<path fill-rule="evenodd" clip-rule="evenodd" d="M78.7402 40.8389C78.7402 40.4409 79.0629 40.1182 79.461 40.1182H97.6851C98.0832 40.1182 98.4059 40.4409 98.4059 40.8389C98.4059 41.237 98.0832 41.5597 97.6851 41.5597H79.461C79.0629 41.5597 78.7402 41.237 78.7402 40.8389Z" fill="#152272"/>
<path fill-rule="evenodd" clip-rule="evenodd" d="M85.71 36.4726C86.1081 36.4726 86.4308 36.7953 86.4308 37.1934V39.8456C86.4308 40.2437 86.1081 40.5664 85.71 40.5664C85.312 40.5664 84.9893 40.2437 84.9893 39.8456V37.1934C84.9893 36.7953 85.312 36.4726 85.71 36.4726Z" fill="#152272"/>
<path fill-rule="evenodd" clip-rule="evenodd" d="M92.7704 36.4726C93.1685 36.4726 93.4912 36.7953 93.4912 37.1934V40.839C93.4912 41.237 93.1685 41.5597 92.7704 41.5597C92.3724 41.5597 92.0497 41.237 92.0497 40.839V37.1934C92.0497 36.7953 92.3724 36.4726 92.7704 36.4726Z" fill="#152272"/>
<path fill-rule="evenodd" clip-rule="evenodd" d="M89.2394 41.0924C89.6375 41.0924 89.9602 41.4151 89.9602 41.8132V44.4857C89.9602 44.8837 89.6375 45.2064 89.2394 45.2064C88.8413 45.2064 88.5186 44.8837 88.5186 44.4857V41.8132C88.5186 41.4151 88.8413 41.0924 89.2394 41.0924Z" fill="#152272"/>
<path fill-rule="evenodd" clip-rule="evenodd" d="M96.2999 40.1182C96.698 40.1182 97.0207 40.4409 97.0207 40.8389V44.4856C97.0207 44.8837 96.698 45.2064 96.2999 45.2064C95.9018 45.2064 95.5791 44.8837 95.5791 44.4856V40.8389C95.5791 40.4409 95.9018 40.1182 96.2999 40.1182Z" fill="#152272"/>
<path fill-rule="evenodd" clip-rule="evenodd" d="M86.3194 29.1793C86.7174 29.1793 87.0401 29.502 87.0401 29.9V33.5467C87.0401 33.9448 86.7174 34.2675 86.3194 34.2675C85.9213 34.2675 85.5986 33.9448 85.5986 33.5467V29.9C85.5986 29.502 85.9213 29.1793 86.3194 29.1793Z" fill="#152272"/>
<path fill-rule="evenodd" clip-rule="evenodd" d="M92.7704 29.1793C93.1685 29.1793 93.4912 29.502 93.4912 29.9V33.5467C93.4912 33.9448 93.1685 34.2675 92.7704 34.2675C92.3724 34.2675 92.0497 33.9448 92.0497 33.5467V29.9C92.0497 29.502 92.3724 29.1793 92.7704 29.1793Z" fill="#152272"/>
<path fill-rule="evenodd" clip-rule="evenodd" d="M89.2394 33.6931C89.6375 33.6931 89.9602 34.0158 89.9602 34.4139V37.1934C89.9602 37.5915 89.6375 37.9142 89.2394 37.9142C88.8413 37.9142 88.5186 37.5915 88.5186 37.1934V34.4139C88.5186 34.0158 88.8413 33.6931 89.2394 33.6931Z" fill="#152272"/>
<path fill-rule="evenodd" clip-rule="evenodd" d="M96.2999 32.8259C96.698 32.8259 97.0207 33.1486 97.0207 33.5467V37.1934C97.0207 37.5915 96.698 37.9142 96.2999 37.9142C95.9018 37.9142 95.5791 37.5915 95.5791 37.1934V33.5467C95.5791 33.1486 95.9018 32.8259 96.2999 32.8259Z" fill="#152272"/>
<path fill-rule="evenodd" clip-rule="evenodd" d="M8.3418 80.3195C8.3418 79.9214 8.6645 79.5987 9.06258 79.5987H26.7333C27.1313 79.5987 27.4541 79.9214 27.4541 80.3195C27.4541 80.7176 27.1313 81.0403 26.7333 81.0403H9.06258C8.6645 81.0403 8.3418 80.7176 8.3418 80.3195Z" fill="#152272"/>
<path fill-rule="evenodd" clip-rule="evenodd" d="M12.6437 94.9062C12.6437 94.5081 12.9664 94.1854 13.3645 94.1854H25.249C25.6471 94.1854 25.9698 94.5081 25.9698 94.9062C25.9698 95.3043 25.6471 95.627 25.249 95.627H13.3645C12.9664 95.627 12.6437 95.3043 12.6437 94.9062Z" fill="#152272"/>
<path fill-rule="evenodd" clip-rule="evenodd" d="M24.0909 94.0762C24.0909 93.6781 24.4136 93.3554 24.8117 93.3554H28.0046C28.4027 93.3554 28.7254 93.6781 28.7254 94.0762C28.7254 94.4743 28.4027 94.797 28.0046 94.797H24.8117C24.4136 94.797 24.0909 94.4743 24.0909 94.0762Z" fill="white"/>
<path fill-rule="evenodd" clip-rule="evenodd" d="M23.1954 94.0762C23.1954 93.6781 23.5181 93.3554 23.9162 93.3554H24.0931C24.4912 93.3554 24.8139 93.6781 24.8139 94.0762C24.8139 94.4743 24.4912 94.797 24.0931 94.797H23.9162C23.5181 94.797 23.1954 94.4743 23.1954 94.0762Z" fill="white"/>
<path fill-rule="evenodd" clip-rule="evenodd" d="M18.9796 82.7454C18.9796 82.3473 19.3023 82.0246 19.7003 82.0246H22.8932C23.2913 82.0246 23.614 82.3473 23.614 82.7454C23.614 83.1434 23.2913 83.4661 22.8932 83.4661H19.7003C19.3023 83.4661 18.9796 83.1434 18.9796 82.7454Z" fill="white"/>
<path fill-rule="evenodd" clip-rule="evenodd" d="M22.8917 82.7454C22.8917 82.3473 23.2144 82.0246 23.6125 82.0246H23.7894C24.1875 82.0246 24.5102 82.3473 24.5102 82.7454C24.5102 83.1434 24.1875 83.4661 23.7894 83.4661H23.6125C23.2144 83.4661 22.8917 83.1434 22.8917 82.7454Z" fill="white"/>
<path fill-rule="evenodd" clip-rule="evenodd" d="M11.919 90.0545C11.919 89.6565 12.2417 89.3337 12.6398 89.3337H15.8327C16.2307 89.3337 16.5534 89.6565 16.5534 90.0545C16.5534 90.4526 16.2307 90.7753 15.8327 90.7753H12.6398C12.2417 90.7753 11.919 90.4526 11.919 90.0545Z" fill="white"/>
<path fill-rule="evenodd" clip-rule="evenodd" d="M15.8309 90.0545C15.8309 89.6565 16.1536 89.3337 16.5517 89.3337H16.7287C17.1267 89.3337 17.4494 89.6565 17.4494 90.0545C17.4494 90.4526 17.1267 90.7753 16.7287 90.7753H16.5517C16.1536 90.7753 15.8309 90.4526 15.8309 90.0545Z" fill="white"/>
<path fill-rule="evenodd" clip-rule="evenodd" d="M10.4561 91.2595C10.4561 90.8614 10.7788 90.5387 11.1768 90.5387H30.6226C31.0207 90.5387 31.3434 90.8614 31.3434 91.2595C31.3434 91.6576 31.0207 91.9803 30.6226 91.9803H11.1768C10.7788 91.9803 10.4561 91.6576 10.4561 91.2595Z" fill="#152272"/>
<path fill-rule="evenodd" clip-rule="evenodd" d="M8.76855 87.6128C8.76855 87.2148 9.09126 86.8921 9.48933 86.8921H24.374C24.7721 86.8921 25.0948 87.2148 25.0948 87.6128C25.0948 88.0109 24.7721 88.3336 24.374 88.3336H9.48933C9.09126 88.3336 8.76855 88.0109 8.76855 87.6128Z" fill="#152272"/>
<path fill-rule="evenodd" clip-rule="evenodd" d="M9.36523 83.9661C9.36523 83.5681 9.68794 83.2454 10.086 83.2454H28.3112C28.7093 83.2454 29.032 83.5681 29.032 83.9661C29.032 84.3642 28.7093 84.6869 28.3112 84.6869H10.086C9.68794 84.6869 9.36523 84.3642 9.36523 83.9661Z" fill="#152272"/>
<path fill-rule="evenodd" clip-rule="evenodd" d="M22.0625 84.2387C22.4605 84.2387 22.7832 84.5614 22.7832 84.9595V87.6128C22.7832 88.0109 22.4605 88.3336 22.0625 88.3336C21.6644 88.3336 21.3417 88.0109 21.3417 87.6128V84.9595C21.3417 84.5614 21.6644 84.2387 22.0625 84.2387Z" fill="#152272"/>
<path fill-rule="evenodd" clip-rule="evenodd" d="M15.002 83.2454C15.4001 83.2454 15.7228 83.5681 15.7228 83.9661V87.6128C15.7228 88.0109 15.4001 88.3336 15.002 88.3336C14.604 88.3336 14.2812 88.0109 14.2812 87.6128V83.9661C14.2812 83.5681 14.604 83.2454 15.002 83.2454Z" fill="#152272"/>
<path fill-rule="evenodd" clip-rule="evenodd" d="M18.5315 79.5987C18.9296 79.5987 19.2523 79.9214 19.2523 80.3195V82.9931C19.2523 83.3912 18.9296 83.7139 18.5315 83.7139C18.1334 83.7139 17.8107 83.3912 17.8107 82.9931V80.3195C17.8107 79.9214 18.1334 79.5987 18.5315 79.5987Z" fill="#152272"/>
<path fill-rule="evenodd" clip-rule="evenodd" d="M11.4707 79.5987C11.8687 79.5987 12.1914 79.9214 12.1914 80.3195V83.9661C12.1914 84.3642 11.8687 84.6869 11.4707 84.6869C11.0726 84.6869 10.7499 84.3642 10.7499 83.9661V80.3195C10.7499 79.9214 11.0726 79.5987 11.4707 79.5987Z" fill="#152272"/>
<path fill-rule="evenodd" clip-rule="evenodd" d="M21.4532 90.5387C21.8513 90.5387 22.174 90.8614 22.174 91.2595V94.9062C22.174 95.3042 21.8513 95.6269 21.4532 95.6269C21.0551 95.6269 20.7324 95.3042 20.7324 94.9062V91.2595C20.7324 90.8614 21.0551 90.5387 21.4532 90.5387Z" fill="#152272"/>
<path fill-rule="evenodd" clip-rule="evenodd" d="M15.002 90.5387C15.4001 90.5387 15.7228 90.8614 15.7228 91.2595V94.9062C15.7228 95.3042 15.4001 95.6269 15.002 95.6269C14.604 95.6269 14.2812 95.3042 14.2812 94.9062V91.2595C14.2812 90.8614 14.604 90.5387 15.002 90.5387Z" fill="#152272"/>
<path fill-rule="evenodd" clip-rule="evenodd" d="M18.5315 86.8921C18.9296 86.8921 19.2523 87.2148 19.2523 87.6128V90.3923C19.2523 90.7904 18.9296 91.1131 18.5315 91.1131C18.1334 91.1131 17.8107 90.7904 17.8107 90.3923V87.6128C17.8107 87.2148 18.1334 86.8921 18.5315 86.8921Z" fill="#152272"/>
<path fill-rule="evenodd" clip-rule="evenodd" d="M11.4707 86.8921C11.8687 86.8921 12.1914 87.2148 12.1914 87.6128V91.2595C12.1914 91.6576 11.8687 91.9803 11.4707 91.9803C11.0726 91.9803 10.7499 91.6576 10.7499 91.2595V87.6128C10.7499 87.2148 11.0726 86.8921 11.4707 86.8921Z" fill="#152272"/>
<path d="M32.8213 23.0471C29.1877 22.484 25.9193 21.3736 23.3542 19.9568C22.9596 19.7391 22.5162 19.6249 22.0655 19.6249C21.6147 19.6249 21.1713 19.7391 20.7767 19.9568C18.2082 21.3736 14.9398 22.4818 11.3097 23.0471C9.81484 23.2818 8.30547 23.412 6.79252 23.4368C6.09505 23.4451 5.42888 23.7274 4.93809 24.2227C4.44731 24.718 4.17135 25.3864 4.16992 26.0834V47.3779C4.17005 49.7319 4.79022 52.0443 5.96813 54.0829C7.14603 56.1215 8.84016 57.8144 10.8803 58.9914L20.0453 64.2846C20.6602 64.6392 21.3577 64.8259 22.0677 64.8259C22.7777 64.8259 23.4752 64.6392 24.0902 64.2846L33.2552 58.9914C35.2953 57.8144 36.9894 56.1215 38.1673 54.0829C39.3452 52.0443 39.9654 49.7319 39.9655 47.3779V26.0834C39.9641 25.3866 39.6883 24.7183 39.1977 24.2231C38.7072 23.7278 38.0413 23.4454 37.344 23.4368C35.8292 23.4122 34.318 23.282 32.8213 23.0471V23.0471Z" fill="#409DE2"/>
<path d="M39.9603 26.0834C39.9589 25.3865 39.6831 24.7183 39.1925 24.223C38.702 23.7278 38.0361 23.4453 37.3388 23.4368C35.8259 23.4119 34.3165 23.2817 32.8217 23.0471C30.5934 22.707 28.408 22.1293 26.3029 21.324C24.9676 23.9019 23.8393 26.5817 22.9286 29.3381C19.5826 39.3705 14.9005 48.9073 9.00867 57.6917C9.59322 58.1764 10.2175 58.6111 10.875 58.9913L20.04 64.2845C20.655 64.6392 21.3525 64.8259 22.0625 64.8259C22.7725 64.8259 23.47 64.6392 24.0849 64.2845L33.2511 58.9913C35.2909 57.8141 36.9847 56.1211 38.1624 54.0826C39.3401 52.044 39.9602 49.7317 39.9603 47.3778V26.0834Z" fill="#152272"/>
<path d="M8.9512 29.5938C9.45227 29.5938 9.85846 29.1879 9.85846 28.6872C9.85846 28.1865 9.45227 27.7806 8.9512 27.7806C8.45014 27.7806 8.04395 28.1865 8.04395 28.6872C8.04395 29.1879 8.45014 29.5938 8.9512 29.5938Z" fill="#152272"/>
<path d="M12.3653 29.5938C12.8663 29.5938 13.2725 29.1879 13.2725 28.6872C13.2725 28.1865 12.8663 27.7806 12.3653 27.7806C11.8642 27.7806 11.458 28.1865 11.458 28.6872C11.458 29.1879 11.8642 29.5938 12.3653 29.5938Z" fill="#152272"/>
<path d="M15.7784 29.5937C16.2794 29.5937 16.6856 29.1878 16.6856 28.6871C16.6856 28.1864 16.2794 27.7805 15.7784 27.7805C15.2773 27.7805 14.8711 28.1864 14.8711 28.6871C14.8711 29.1878 15.2773 29.5937 15.7784 29.5937Z" fill="#152272"/>
<path d="M19.1925 29.5938C19.6936 29.5938 20.0998 29.1879 20.0998 28.6872C20.0998 28.1865 19.6936 27.7806 19.1925 27.7806C18.6915 27.7806 18.2853 28.1865 18.2853 28.6872C18.2853 29.1879 18.6915 29.5938 19.1925 29.5938Z" fill="#152272"/>
<path d="M22.6074 29.5938C23.1085 29.5938 23.5147 29.1879 23.5147 28.6871C23.5147 28.1864 23.1085 27.7805 22.6074 27.7805C22.1063 27.7805 21.7001 28.1864 21.7001 28.6871C21.7001 29.1879 22.1063 29.5938 22.6074 29.5938Z" fill="#152272"/>
<path d="M26.0215 29.5938C26.5226 29.5938 26.9288 29.1879 26.9288 28.6872C26.9288 28.1865 26.5226 27.7806 26.0215 27.7806C25.5205 27.7806 25.1143 28.1865 25.1143 28.6872C25.1143 29.1879 25.5205 29.5938 26.0215 29.5938Z" fill="#152272"/>
<path d="M29.4346 29.5938C29.9357 29.5938 30.3419 29.1879 30.3419 28.6872C30.3419 28.1865 29.9357 27.7806 29.4346 27.7806C28.9335 27.7806 28.5273 28.1865 28.5273 28.6872C28.5273 29.1879 28.9335 29.5938 29.4346 29.5938Z" fill="#152272"/>
<path d="M32.8487 29.5938C33.3498 29.5938 33.756 29.1879 33.756 28.6872C33.756 28.1865 33.3498 27.7806 32.8487 27.7806C32.3477 27.7806 31.9415 28.1865 31.9415 28.6872C31.9415 29.1879 32.3477 29.5938 32.8487 29.5938Z" fill="#152272"/>
<path d="M10.6573 32.5445C11.1583 32.5445 11.5645 32.1386 11.5645 31.6379C11.5645 31.1372 11.1583 30.7313 10.6573 30.7313C10.1562 30.7313 9.75 31.1372 9.75 31.6379C9.75 32.1386 10.1562 32.5445 10.6573 32.5445Z" fill="#152272"/>
<path d="M14.0713 32.5444C14.5724 32.5444 14.9786 32.1385 14.9786 31.6378C14.9786 31.1371 14.5724 30.7312 14.0713 30.7312C13.5703 30.7312 13.1641 31.1371 13.1641 31.6378C13.1641 32.1385 13.5703 32.5444 14.0713 32.5444Z" fill="#152272"/>
<path d="M17.4862 32.5444C17.9872 32.5444 18.3934 32.1385 18.3934 31.6378C18.3934 31.1371 17.9872 30.7312 17.4862 30.7312C16.9851 30.7312 16.5789 31.1371 16.5789 31.6378C16.5789 32.1385 16.9851 32.5444 17.4862 32.5444Z" fill="#152272"/>
<path d="M20.9004 32.5445C21.4015 32.5445 21.8077 32.1386 21.8077 31.6379C21.8077 31.1372 21.4015 30.7313 20.9004 30.7313C20.3994 30.7313 19.9932 31.1372 19.9932 31.6379C19.9932 32.1386 20.3994 32.5445 20.9004 32.5445Z" fill="#152272"/>
<path d="M24.3135 32.5444C24.8146 32.5444 25.2208 32.1385 25.2208 31.6378C25.2208 31.1371 24.8146 30.7312 24.3135 30.7312C23.8124 30.7312 23.4062 31.1371 23.4062 31.6378C23.4062 32.1385 23.8124 32.5444 24.3135 32.5444Z" fill="#152272"/>
<path d="M27.7287 32.5444C28.2297 32.5444 28.6359 32.1385 28.6359 31.6378C28.6359 31.1371 28.2297 30.7312 27.7287 30.7312C27.2276 30.7312 26.8214 31.1371 26.8214 31.6378C26.8214 32.1385 27.2276 32.5444 27.7287 32.5444Z" fill="#152272"/>
<path d="M31.1426 32.5444C31.6437 32.5444 32.0499 32.1385 32.0499 31.6378C32.0499 31.1371 31.6437 30.7312 31.1426 30.7312C30.6415 30.7312 30.2354 31.1371 30.2354 31.6378C30.2354 32.1385 30.6415 32.5444 31.1426 32.5444Z" fill="#152272"/>
<path d="M8.9512 35.4963C9.45227 35.4963 9.85846 35.0903 9.85846 34.5896C9.85846 34.0889 9.45227 33.683 8.9512 33.683C8.45014 33.683 8.04395 34.0889 8.04395 34.5896C8.04395 35.0903 8.45014 35.4963 8.9512 35.4963Z" fill="#152272"/>
<path d="M12.3653 35.4963C12.8663 35.4963 13.2725 35.0904 13.2725 34.5896C13.2725 34.0889 12.8663 33.683 12.3653 33.683C11.8642 33.683 11.458 34.0889 11.458 34.5896C11.458 35.0904 11.8642 35.4963 12.3653 35.4963Z" fill="#152272"/>
<path d="M15.7784 35.4963C16.2794 35.4963 16.6856 35.0903 16.6856 34.5896C16.6856 34.0889 16.2794 33.683 15.7784 33.683C15.2773 33.683 14.8711 34.0889 14.8711 34.5896C14.8711 35.0903 15.2773 35.4963 15.7784 35.4963Z" fill="#152272"/>
<path d="M19.1925 35.4963C19.6936 35.4963 20.0998 35.0903 20.0998 34.5896C20.0998 34.0889 19.6936 33.683 19.1925 33.683C18.6915 33.683 18.2853 34.0889 18.2853 34.5896C18.2853 35.0903 18.6915 35.4963 19.1925 35.4963Z" fill="#152272"/>
<path d="M22.6074 35.4963C23.1085 35.4963 23.5147 35.0904 23.5147 34.5897C23.5147 34.089 23.1085 33.6831 22.6074 33.6831C22.1063 33.6831 21.7001 34.089 21.7001 34.5897C21.7001 35.0904 22.1063 35.4963 22.6074 35.4963Z" fill="#152272"/>
<path d="M26.0215 35.4963C26.5226 35.4963 26.9288 35.0904 26.9288 34.5896C26.9288 34.0889 26.5226 33.683 26.0215 33.683C25.5205 33.683 25.1143 34.0889 25.1143 34.5896C25.1143 35.0904 25.5205 35.4963 26.0215 35.4963Z" fill="#152272"/>
<path d="M29.4346 35.4963C29.9357 35.4963 30.3419 35.0904 30.3419 34.5896C30.3419 34.0889 29.9357 33.683 29.4346 33.683C28.9335 33.683 28.5273 34.0889 28.5273 34.5896C28.5273 35.0904 28.9335 35.4963 29.4346 35.4963Z" fill="#152272"/>
<path d="M32.8487 35.4963C33.3498 35.4963 33.756 35.0903 33.756 34.5896C33.756 34.0889 33.3498 33.683 32.8487 33.683C32.3477 33.683 31.9415 34.0889 31.9415 34.5896C31.9415 35.0903 32.3477 35.4963 32.8487 35.4963Z" fill="#152272"/>
<path d="M10.6573 38.4469C11.1583 38.4469 11.5645 38.041 11.5645 37.5403C11.5645 37.0396 11.1583 36.6337 10.6573 36.6337C10.1562 36.6337 9.75 37.0396 9.75 37.5403C9.75 38.041 10.1562 38.4469 10.6573 38.4469Z" fill="#152272"/>
<path d="M14.0713 38.4469C14.5724 38.4469 14.9786 38.041 14.9786 37.5403C14.9786 37.0396 14.5724 36.6337 14.0713 36.6337C13.5703 36.6337 13.1641 37.0396 13.1641 37.5403C13.1641 38.041 13.5703 38.4469 14.0713 38.4469Z" fill="#152272"/>
<path d="M17.4862 38.4469C17.9872 38.4469 18.3934 38.041 18.3934 37.5403C18.3934 37.0396 17.9872 36.6337 17.4862 36.6337C16.9851 36.6337 16.5789 37.0396 16.5789 37.5403C16.5789 38.041 16.9851 38.4469 17.4862 38.4469Z" fill="#152272"/>
<path d="M20.9004 38.4469C21.4015 38.4469 21.8077 38.041 21.8077 37.5403C21.8077 37.0396 21.4015 36.6337 20.9004 36.6337C20.3994 36.6337 19.9932 37.0396 19.9932 37.5403C19.9932 38.041 20.3994 38.4469 20.9004 38.4469Z" fill="#152272"/>
<path d="M24.3135 38.4469C24.8146 38.4469 25.2208 38.041 25.2208 37.5403C25.2208 37.0396 24.8146 36.6337 24.3135 36.6337C23.8124 36.6337 23.4062 37.0396 23.4062 37.5403C23.4062 38.041 23.8124 38.4469 24.3135 38.4469Z" fill="#152272"/>
<path d="M27.7287 38.4469C28.2297 38.4469 28.6359 38.041 28.6359 37.5403C28.6359 37.0396 28.2297 36.6337 27.7287 36.6337C27.2276 36.6337 26.8214 37.0396 26.8214 37.5403C26.8214 38.041 27.2276 38.4469 27.7287 38.4469Z" fill="#152272"/>
<path d="M31.1426 38.4469C31.6437 38.4469 32.0499 38.041 32.0499 37.5403C32.0499 37.0396 31.6437 36.6337 31.1426 36.6337C30.6415 36.6337 30.2354 37.0396 30.2354 37.5403C30.2354 38.041 30.6415 38.4469 31.1426 38.4469Z" fill="#152272"/>
<path d="M8.9512 41.3987C9.45227 41.3987 9.85846 40.9928 9.85846 40.4921C9.85846 39.9914 9.45227 39.5855 8.9512 39.5855C8.45014 39.5855 8.04395 39.9914 8.04395 40.4921C8.04395 40.9928 8.45014 41.3987 8.9512 41.3987Z" fill="#152272"/>
<path d="M12.3653 41.3987C12.8663 41.3987 13.2725 40.9928 13.2725 40.4921C13.2725 39.9914 12.8663 39.5855 12.3653 39.5855C11.8642 39.5855 11.458 39.9914 11.458 40.4921C11.458 40.9928 11.8642 41.3987 12.3653 41.3987Z" fill="#152272"/>
<path d="M15.7784 41.3988C16.2794 41.3988 16.6856 40.9929 16.6856 40.4922C16.6856 39.9915 16.2794 39.5856 15.7784 39.5856C15.2773 39.5856 14.8711 39.9915 14.8711 40.4922C14.8711 40.9929 15.2773 41.3988 15.7784 41.3988Z" fill="#152272"/>
<path d="M19.1925 41.3987C19.6936 41.3987 20.0998 40.9928 20.0998 40.4921C20.0998 39.9914 19.6936 39.5855 19.1925 39.5855C18.6915 39.5855 18.2853 39.9914 18.2853 40.4921C18.2853 40.9928 18.6915 41.3987 19.1925 41.3987Z" fill="#152272"/>
<path d="M22.6074 41.3988C23.1085 41.3988 23.5147 40.9929 23.5147 40.4922C23.5147 39.9915 23.1085 39.5856 22.6074 39.5856C22.1063 39.5856 21.7001 39.9915 21.7001 40.4922C21.7001 40.9929 22.1063 41.3988 22.6074 41.3988Z" fill="#152272"/>
<path d="M26.0215 41.3987C26.5226 41.3987 26.9288 40.9928 26.9288 40.4921C26.9288 39.9914 26.5226 39.5855 26.0215 39.5855C25.5205 39.5855 25.1143 39.9914 25.1143 40.4921C25.1143 40.9928 25.5205 41.3987 26.0215 41.3987Z" fill="#152272"/>
<path d="M29.4346 41.3987C29.9357 41.3987 30.3419 40.9928 30.3419 40.4921C30.3419 39.9914 29.9357 39.5855 29.4346 39.5855C28.9335 39.5855 28.5273 39.9914 28.5273 40.4921C28.5273 40.9928 28.9335 41.3987 29.4346 41.3987Z" fill="#152272"/>
<path d="M32.8487 41.3987C33.3498 41.3987 33.756 40.9928 33.756 40.4921C33.756 39.9914 33.3498 39.5855 32.8487 39.5855C32.3477 39.5855 31.9415 39.9914 31.9415 40.4921C31.9415 40.9928 32.3477 41.3987 32.8487 41.3987Z" fill="#152272"/>
<path d="M10.6573 44.3494C11.1583 44.3494 11.5645 43.9435 11.5645 43.4428C11.5645 42.9421 11.1583 42.5362 10.6573 42.5362C10.1562 42.5362 9.75 42.9421 9.75 43.4428C9.75 43.9435 10.1562 44.3494 10.6573 44.3494Z" fill="#152272"/>
<path d="M14.0713 44.3494C14.5724 44.3494 14.9786 43.9435 14.9786 43.4428C14.9786 42.9421 14.5724 42.5362 14.0713 42.5362C13.5703 42.5362 13.1641 42.9421 13.1641 43.4428C13.1641 43.9435 13.5703 44.3494 14.0713 44.3494Z" fill="#152272"/>
<path d="M17.4862 44.3494C17.9872 44.3494 18.3934 43.9435 18.3934 43.4428C18.3934 42.9421 17.9872 42.5362 17.4862 42.5362C16.9851 42.5362 16.5789 42.9421 16.5789 43.4428C16.5789 43.9435 16.9851 44.3494 17.4862 44.3494Z" fill="#152272"/>
<path d="M20.9004 44.3494C21.4015 44.3494 21.8077 43.9435 21.8077 43.4428C21.8077 42.9421 21.4015 42.5362 20.9004 42.5362C20.3994 42.5362 19.9932 42.9421 19.9932 43.4428C19.9932 43.9435 20.3994 44.3494 20.9004 44.3494Z" fill="#152272"/>
<path d="M24.3135 44.3495C24.8146 44.3495 25.2208 43.9436 25.2208 43.4429C25.2208 42.9422 24.8146 42.5363 24.3135 42.5363C23.8124 42.5363 23.4062 42.9422 23.4062 43.4429C23.4062 43.9436 23.8124 44.3495 24.3135 44.3495Z" fill="#152272"/>
<path d="M27.7287 44.3494C28.2297 44.3494 28.6359 43.9435 28.6359 43.4428C28.6359 42.9421 28.2297 42.5362 27.7287 42.5362C27.2276 42.5362 26.8214 42.9421 26.8214 43.4428C26.8214 43.9435 27.2276 44.3494 27.7287 44.3494Z" fill="#152272"/>
<path d="M31.1426 44.3495C31.6437 44.3495 32.0499 43.9436 32.0499 43.4429C32.0499 42.9422 31.6437 42.5363 31.1426 42.5363C30.6415 42.5363 30.2354 42.9422 30.2354 43.4429C30.2354 43.9436 30.6415 44.3495 31.1426 44.3495Z" fill="#152272"/>
<path d="M8.9512 47.3012C9.45227 47.3012 9.85846 46.8953 9.85846 46.3946C9.85846 45.8939 9.45227 45.488 8.9512 45.488C8.45014 45.488 8.04395 45.8939 8.04395 46.3946C8.04395 46.8953 8.45014 47.3012 8.9512 47.3012Z" fill="#152272"/>
<path d="M12.3653 47.3012C12.8663 47.3012 13.2725 46.8953 13.2725 46.3946C13.2725 45.8939 12.8663 45.488 12.3653 45.488C11.8642 45.488 11.458 45.8939 11.458 46.3946C11.458 46.8953 11.8642 47.3012 12.3653 47.3012Z" fill="#152272"/>
<path d="M15.7784 47.3012C16.2794 47.3012 16.6856 46.8953 16.6856 46.3946C16.6856 45.8939 16.2794 45.488 15.7784 45.488C15.2773 45.488 14.8711 45.8939 14.8711 46.3946C14.8711 46.8953 15.2773 47.3012 15.7784 47.3012Z" fill="#152272"/>
<path d="M19.1925 47.3012C19.6936 47.3012 20.0998 46.8953 20.0998 46.3946C20.0998 45.8939 19.6936 45.488 19.1925 45.488C18.6915 45.488 18.2853 45.8939 18.2853 46.3946C18.2853 46.8953 18.6915 47.3012 19.1925 47.3012Z" fill="#152272"/>
<path d="M22.6074 47.3012C23.1085 47.3012 23.5147 46.8953 23.5147 46.3946C23.5147 45.8939 23.1085 45.488 22.6074 45.488C22.1063 45.488 21.7001 45.8939 21.7001 46.3946C21.7001 46.8953 22.1063 47.3012 22.6074 47.3012Z" fill="#152272"/>
<path d="M26.0215 47.3012C26.5226 47.3012 26.9288 46.8953 26.9288 46.3946C26.9288 45.8939 26.5226 45.488 26.0215 45.488C25.5205 45.488 25.1143 45.8939 25.1143 46.3946C25.1143 46.8953 25.5205 47.3012 26.0215 47.3012Z" fill="#152272"/>
<path d="M29.4346 47.3012C29.9357 47.3012 30.3419 46.8953 30.3419 46.3946C30.3419 45.8939 29.9357 45.488 29.4346 45.488C28.9335 45.488 28.5273 45.8939 28.5273 46.3946C28.5273 46.8953 28.9335 47.3012 29.4346 47.3012Z" fill="#152272"/>
<path d="M32.8487 47.3012C33.3498 47.3012 33.756 46.8953 33.756 46.3946C33.756 45.8939 33.3498 45.488 32.8487 45.488C32.3477 45.488 31.9415 45.8939 31.9415 46.3946C31.9415 46.8953 32.3477 47.3012 32.8487 47.3012Z" fill="#152272"/>
<path d="M10.6573 50.2519C11.1583 50.2519 11.5645 49.846 11.5645 49.3453C11.5645 48.8446 11.1583 48.4387 10.6573 48.4387C10.1562 48.4387 9.75 48.8446 9.75 49.3453C9.75 49.846 10.1562 50.2519 10.6573 50.2519Z" fill="#152272"/>
<path d="M14.0713 50.2518C14.5724 50.2518 14.9786 49.8459 14.9786 49.3452C14.9786 48.8445 14.5724 48.4386 14.0713 48.4386C13.5703 48.4386 13.1641 48.8445 13.1641 49.3452C13.1641 49.8459 13.5703 50.2518 14.0713 50.2518Z" fill="#152272"/>
<path d="M17.4862 50.2518C17.9872 50.2518 18.3934 49.8459 18.3934 49.3452C18.3934 48.8445 17.9872 48.4386 17.4862 48.4386C16.9851 48.4386 16.5789 48.8445 16.5789 49.3452C16.5789 49.8459 16.9851 50.2518 17.4862 50.2518Z" fill="#152272"/>
<path d="M20.9004 50.2519C21.4015 50.2519 21.8077 49.846 21.8077 49.3453C21.8077 48.8446 21.4015 48.4387 20.9004 48.4387C20.3994 48.4387 19.9932 48.8446 19.9932 49.3453C19.9932 49.846 20.3994 50.2519 20.9004 50.2519Z" fill="#152272"/>
<path d="M24.3135 50.2519C24.8146 50.2519 25.2208 49.846 25.2208 49.3453C25.2208 48.8446 24.8146 48.4387 24.3135 48.4387C23.8124 48.4387 23.4062 48.8446 23.4062 49.3453C23.4062 49.846 23.8124 50.2519 24.3135 50.2519Z" fill="#152272"/>
<path d="M27.7287 50.2518C28.2297 50.2518 28.6359 49.8459 28.6359 49.3452C28.6359 48.8445 28.2297 48.4386 27.7287 48.4386C27.2276 48.4386 26.8214 48.8445 26.8214 49.3452C26.8214 49.8459 27.2276 50.2518 27.7287 50.2518Z" fill="#152272"/>
<path d="M31.1426 50.2519C31.6437 50.2519 32.0499 49.846 32.0499 49.3453C32.0499 48.8446 31.6437 48.4387 31.1426 48.4387C30.6415 48.4387 30.2354 48.8446 30.2354 49.3453C30.2354 49.846 30.6415 50.2519 31.1426 50.2519Z" fill="#152272"/>
<path fill-rule="evenodd" clip-rule="evenodd" d="M29.8654 36.9268L18.6696 48.1132L14.2588 43.7041L16.4991 41.463L18.6701 43.6332L27.6256 34.6852L29.8654 36.9268Z" fill="white"/>
</svg>
